<svg version="1.1" xmlns="http://www.w3.org/2000/svg" style="display: block;" viewBox="0 0 2048 1170" width="1050" height="600" preserveAspectRatio="none">
<path transform="translate(0,0)" fill="rgb(239,239,238)" d="M 0 0 L 2048 0 L 2048 1170 L 0 1170 L 0 0 z"/>
<path transform="translate(0,0)" fill="rgb(193,40,4)" d="M 825.872 450.584 C 848.592 453.557 831.724 511.668 832.829 527.507 C 833.03 530.378 832.08 555.535 831.466 557.897 C 825.27 581.758 824.893 602.018 823.921 626.362 C 827.606 630.33 830.262 633.599 833.602 637.871 C 833.263 643.176 832.335 648.427 830.833 653.526 C 828.37 661.729 820.887 677.831 810.193 674.52 C 791.717 658.848 806.578 597.143 803.854 581.042 C 798.933 573.247 791.438 576.597 784.258 579.592 C 773.201 584.206 769.687 598.015 766.099 608.4 C 762.002 618.126 744.635 675.44 733.559 671.141 C 726.972 658.895 758.162 608.622 755.996 593.093 C 752.112 589.458 742.223 592.632 735.126 589.365 C 732.825 586.669 733.322 587.989 733.296 584.399 C 737.642 576.801 762.809 574.204 769.636 564.067 C 786.048 539.697 805.701 467.822 825.872 450.584 z"/>
<path transform="translate(0,0)" fill="rgb(239,239,238)" d="M 809.46 508.692 C 815.599 514.516 809.531 551.455 803.904 558.248 C 801.921 560.642 793.163 560.719 789.843 560.857 C 788.557 559.803 786.874 558.002 787.416 556.219 C 791.401 543.117 800.008 517.716 809.46 508.692 z"/>
<path transform="translate(0,0)" fill="rgb(193,40,4)" d="M 1235.2 428.155 C 1238.79 427.718 1241.09 427.09 1244.26 428.904 C 1251.42 435.994 1242.61 456.528 1250.48 463.587 C 1259.41 466.664 1275.1 450.677 1282.74 456.244 C 1281.03 465.351 1246.54 481.907 1244.48 493.847 C 1239.21 524.329 1241.2 556.345 1237.75 587.176 C 1236.45 598.775 1243.16 592.571 1248.45 598.168 C 1250.13 604.817 1244.29 623.768 1241.13 630.187 C 1236.79 636.281 1226.26 646.719 1220.06 638.911 C 1210.93 627.405 1214.63 597.727 1215.21 584.404 C 1215.91 565.751 1216.86 547.109 1218.06 528.481 C 1218.46 522.97 1220.25 507.844 1219.21 503.725 C 1216.23 491.891 1194.14 510.87 1192.13 494.932 C 1194.98 488.106 1214.03 486.475 1218.98 481.265 C 1235.13 464.264 1211.95 444.643 1235.2 428.155 z"/>
<path transform="translate(0,0)" fill="rgb(193,40,4)" d="M 1162.67 516.904 C 1167.06 517.694 1170.31 518.81 1171.01 523.942 C 1172.08 531.678 1171.82 542.097 1167.31 548.774 C 1160.65 552.593 1161.61 545.225 1154.02 543.938 C 1149.65 547.653 1148.73 557.79 1147.63 563.695 C 1161.97 566.492 1182.09 561.222 1191.13 574.547 C 1205.65 596.267 1180.26 627.37 1165.39 642.517 C 1153.08 655.063 1135.02 671.94 1116.12 669.641 C 1106.48 668.468 1107.07 657.071 1108.82 650.092 C 1112.43 640.763 1130.85 616.035 1141.57 616.825 C 1144.39 623.203 1131.97 633.97 1132.97 642.207 L 1134.7 643.446 C 1142.18 643.34 1150.38 633.923 1154.73 628.487 C 1161.58 619.605 1180.88 595.521 1175.08 583.974 C 1168.14 570.172 1115.14 593.567 1131.44 561.104 C 1138.42 547.21 1147.12 531.286 1156.94 519.233 C 1157.56 518.47 1161.57 517.226 1162.67 516.904 z"/>
<path transform="translate(0,0)" fill="rgb(193,40,4)" d="M 915.781 532.799 C 922.27 534.066 923.561 538.34 926.564 543.791 C 925.536 551.232 925.988 564.927 917.506 566.153 C 913.961 565.246 910.859 561.318 908.212 558.553 C 892.761 576.443 882.938 603.025 875.743 625.373 C 871.891 637.337 867.605 663.478 854.569 668.142 C 851.294 667.868 852.572 668.364 849.674 665.141 C 842.752 653.747 850.1 610.169 849.018 594.491 C 848.237 583.167 851.75 558.911 862.614 552.682 C 872.476 552.033 876.877 566.886 879.474 574.591 C 894.599 558.785 898.291 540.541 915.781 532.799 z"/>
<path transform="translate(0,0)" fill="rgb(193,40,4)" d="M 1085.8 542.631 C 1087.22 543.62 1086.92 543.688 1087.77 545.454 C 1087.71 555.103 1069.86 591.712 1066.87 603.587 C 1063.86 615.57 1055.75 645.736 1042.44 648.358 C 1030.83 645.301 1029.54 619.143 1028.74 608.758 C 1026.86 593.436 1026 575.744 1025.91 560.321 C 1025.86 552.191 1033.49 547.07 1041.05 549.612 C 1052.63 557.713 1043 584.705 1052.74 589.839 C 1065.97 583.549 1070.15 552.481 1085.8 542.631 z"/>
<path transform="translate(0,0)" fill="rgb(125,119,110)" d="M 959.433 569.421 L 986.463 601.589 C 996.28 613.104 1041.73 664.703 1045.4 674.111 C 1044.77 679.068 1041.54 681.933 1036.46 681.602 C 1029.87 679.103 981.543 625.011 972.784 616.137 C 970.421 612.979 962.564 604.739 959.584 601.452 C 944.067 586.262 944.265 584.991 959.433 569.421 z"/>
<path transform="translate(0,0)" fill="rgb(171,21,45)" d="M 959.433 569.421 C 950.081 557.492 904.256 505.004 901.732 497 C 902.433 491.404 904.942 489.379 910.581 489.406 C 917.732 492.942 964.186 544.968 973.072 554.639 C 977.651 559.354 982.117 564.176 986.467 569.102 C 1001.91 585.152 1002.41 585.738 986.463 601.589 L 959.433 569.421 z"/>
<path transform="translate(0,0)" fill="rgb(193,40,4)" d="M 1102.98 545.917 C 1111.12 545.592 1119.15 549.353 1117.96 558.745 C 1114.61 585.145 1110.5 612.378 1104.11 638.203 C 1103.56 640.448 1100.23 643.68 1098.58 645.29 C 1096.51 646.611 1096.6 646.513 1094.1 646.609 C 1089.11 643.947 1087.52 638.525 1085.3 633.358 C 1087.22 617.84 1089.14 602.299 1090.01 586.677 C 1090.54 577 1090.35 566.763 1093.21 557.434 C 1095.14 551.127 1097.3 548.912 1102.98 545.917 z"/>
<path transform="translate(0,0)" fill="rgb(171,21,45)" d="M 959.584 601.452 C 962.564 604.739 970.421 612.979 972.784 616.137 C 964.698 624.826 930.316 664.978 922.419 667.357 C 920.704 667.874 918.625 667.464 917.14 666.502 C 915.314 665.32 914.231 664.32 913.927 662.063 C 912.57 651.958 951.638 610.768 959.584 601.452 z"/>
<path transform="translate(0,0)" fill="rgb(125,119,110)" d="M 973.072 554.639 C 979.8 547.265 1014.68 505.859 1021.63 505.761 C 1023.95 505.728 1026.14 506.712 1027.71 508.416 C 1029.38 510.215 1029.48 511.175 1029.92 513.493 C 1028.09 520.269 993.204 560.423 986.467 569.102 C 982.117 564.176 977.651 559.354 973.072 554.639 z"/>
<path transform="translate(0,0)" fill="rgb(125,119,110)" d="M 1150.28 704.383 C 1157.29 704.315 1164.33 703.726 1170.38 707.603 C 1174.08 714.755 1166.4 717.348 1166.65 723.41 C 1166.66 723.827 1172.37 731.104 1172.96 734.562 C 1170.28 735.597 1170.61 735.114 1167.25 734.465 C 1163.13 728.078 1161.44 725.44 1156.21 719.849 C 1156.25 724.28 1156.89 731.794 1154.42 735.305 L 1152.54 735.434 L 1150.59 733.704 C 1149.51 725.963 1150.14 712.632 1150.28 704.383 z"/>
<path transform="translate(0,0)" fill="rgb(239,239,238)" d="M 1156.08 708.646 C 1159.52 708.924 1161.86 708.728 1164.55 710.762 C 1166.07 714.55 1165.6 713.525 1164.79 718.033 C 1161.72 718.746 1160.16 719.463 1157.25 718.382 C 1155.33 715.852 1155.99 712.109 1156.08 708.646 z"/>
<path transform="translate(0,0)" fill="rgb(125,119,110)" d="M 1027.45 704.315 C 1039.38 704.19 1060.39 707.954 1042.59 722.284 C 1045.06 725.971 1050.27 730.44 1048.98 734.73 L 1044.78 735.138 C 1040.38 728.291 1039.03 725.938 1033.31 719.989 C 1033.31 724.356 1034.05 731.287 1031.81 734.575 C 1028.92 735.281 1030.24 735.472 1027.68 734.029 C 1026.72 726.558 1027.32 712.351 1027.45 704.315 z"/>
<path transform="translate(0,0)" fill="rgb(239,239,238)" d="M 1033.19 708.686 C 1036.81 709.002 1039.18 708.708 1041.87 710.982 C 1043.26 713.991 1042.78 714.951 1041.94 718.14 C 1038.9 718.765 1037.12 719.497 1034.3 718.351 C 1032.44 714.915 1033.18 713.151 1033.19 708.686 z"/>
<path transform="translate(0,0)" fill="rgb(125,119,110)" d="M 1130.96 703.688 L 1134.55 704.309 C 1138.09 706.805 1147.82 732.023 1147.37 734.507 L 1144.41 735.171 C 1139.48 732.598 1143.12 730.761 1137.76 727.343 C 1127.29 727.003 1129.82 728.493 1120.31 734.638 L 1119.69 733.66 C 1122.06 724.276 1127.14 712.647 1130.96 703.688 z"/>
<path transform="translate(0,0)" fill="rgb(239,239,238)" d="M 1133.15 711.603 C 1136.14 715.629 1138.88 720.726 1135.33 724.773 C 1133.04 724.377 1131.48 724.42 1129.93 722.778 C 1129.37 718.713 1131.39 715.828 1133.15 711.603 z"/>
<path transform="translate(0,0)" fill="rgb(125,119,110)" d="M 1250.87 703.745 C 1254.23 704.365 1254.98 703.809 1256.84 706.74 C 1259.7 711.239 1267.69 731.215 1266.95 734.785 C 1259.63 736.127 1263.89 731.294 1257.79 727.314 C 1254.7 727.339 1251.52 727.475 1248.42 727.567 C 1245.59 729.412 1246.21 729.707 1244.93 733.435 C 1242.47 735.415 1243.62 734.894 1240.03 734.926 L 1239.15 733.619 C 1241.97 724.619 1247.18 712.596 1250.87 703.745 z"/>
<path transform="translate(0,0)" fill="rgb(239,239,238)" d="M 1252.74 711.675 C 1255.43 714.259 1257.89 720.522 1256.57 724.152 C 1253.84 724.038 1251.97 724.335 1249.98 722.643 C 1249.3 718.891 1251.24 715.712 1252.74 711.675 z"/>
<path transform="translate(0,0)" fill="rgb(125,119,110)" d="M 1222.71 717.873 C 1222.54 712.016 1222.31 710.12 1223.96 704.583 L 1225.79 703.749 C 1229.6 709.067 1228.45 729.342 1227.86 736.212 L 1224.45 735.141 C 1221.53 731.085 1222.47 727.105 1222.63 721.694 C 1218.06 721.475 1212.8 721.586 1208.17 721.572 C 1208.26 725.566 1208.99 732.027 1206.62 734.926 L 1203.8 734.684 C 1200.91 730.514 1202.38 709.976 1202.55 703.564 L 1206.46 704.5 C 1209.34 708.392 1208.38 712.702 1208.18 717.919 L 1222.71 717.873 z"/>
<path transform="translate(0,0)" fill="rgb(125,119,110)" d="M 1098.57 704.487 C 1103.43 704.26 1114.24 703.088 1117.46 707.096 C 1114.01 708.923 1109.2 708.657 1104.84 709.594 C 1103.44 712.288 1104.07 715.654 1105.98 717.866 L 1114.28 718.309 L 1114.45 719.256 C 1107.91 724.264 1106.5 719.149 1102.68 726.684 C 1106.17 733.723 1111.84 727.693 1118.2 733.266 L 1117.36 734.474 C 1111.34 735.122 1104.72 735.009 1098.63 735.057 C 1098.21 725.507 1098.53 714.167 1098.57 704.487 z"/>
<path transform="translate(0,0)" fill="rgb(193,40,4)" d="M 1114.1 490.153 C 1117.73 490.579 1119.07 490.526 1122.16 492.663 C 1126.35 500.491 1119.81 508.653 1113.54 513.251 C 1100.55 505.666 1098.7 495.816 1114.1 490.153 z"/>
<path transform="translate(0,0)" fill="rgb(125,119,110)" d="M 1053.3 704.377 C 1057.16 704.321 1070.19 703.933 1072.98 705.65 C 1071.05 707.68 1061.91 710.565 1058.51 711.866 L 1059.18 714.08 C 1061.6 717.029 1065.93 718.71 1069.47 720.416 C 1067.01 723.116 1062.96 719.471 1057.67 724.676 C 1060.27 734.352 1064.88 727.922 1072.41 732.501 L 1072.19 734.081 C 1068.66 735.464 1057.65 735.058 1053.24 735.078 L 1053.3 704.377 z"/>
<path transform="translate(0,0)" fill="rgb(125,119,110)" d="M 1081.7 704.133 C 1086.46 703.938 1091.85 703.839 1094.42 708.578 C 1091.59 710.434 1085.05 708.335 1081.06 711.132 C 1081.1 715.926 1089.64 718.252 1094.68 723.301 C 1097.14 730.169 1092.74 732.572 1087.16 735.751 C 1080.57 735.04 1078.42 735.661 1074.62 730.942 L 1074.96 729.564 C 1077.5 728.795 1083.61 729.771 1086.59 730.092 C 1089.12 728.878 1088.29 729.793 1089.42 727.538 C 1086.62 720.358 1064.86 716.879 1081.7 704.133 z"/>
<path transform="translate(0,0)" fill="rgb(125,119,110)" d="M 1184.83 704.212 C 1192.67 704.019 1193.3 703.533 1199.02 708.398 L 1199.01 709.878 C 1191.77 712.774 1177.58 703.182 1180.1 722.733 C 1181.22 731.374 1188.76 730.918 1195.16 729.422 L 1195.83 728.599 L 1197.57 728.542 L 1198.4 730.402 C 1197.72 731.772 1197.3 733.34 1195.81 733.901 C 1174.58 741.899 1164.44 714.856 1184.83 704.212 z"/>
<path transform="translate(0,0)" fill="rgb(125,119,110)" d="M 1270.49 703.636 L 1274.1 704.359 C 1277.78 709.292 1276.09 728.992 1275.88 735.905 C 1273.52 735.528 1273.46 735.478 1271.25 734.52 C 1268.53 728.855 1270.17 710.814 1270.49 703.636 z"/>
</svg>